<svg id="Capa_1" enable-background="new 0 0 512 512" height="512" viewBox="0 0 512 512" width="512" xmlns="http://www.w3.org/2000/svg"><path d="m434.976 434.009h-357.952c-7.679 0-13.904-6.225-13.904-13.904v-31.684h385.76v31.684c0 7.679-6.225 13.904-13.904 13.904z" fill="#8eafe2"/><path d="m71.285 395.382h369.43c35.227 0 63.785-28.558 63.785-63.785v-189.82c0-35.228-28.558-63.785-63.785-63.785h-369.43c-35.228 0-63.785 28.558-63.785 63.785v189.82c0 35.227 28.558 63.785 63.785 63.785z" fill="#4e5660"/><path d="m154.874 77.991h-83.589c-35.228 0-63.785 28.558-63.785 63.785v189.82c0 35.228 28.557 63.785 63.785 63.785h171.491c-61.289-72.541-90.843-191.672-87.902-317.39z" fill="#383c43"/><path d="m71.285 77.991h115.824v317.391h-115.824c-35.228 0-63.785-28.558-63.785-63.785v-189.82c0-35.228 28.558-63.786 63.785-63.786z" fill="#a3defe"/><path d="m71.285 395.382h115.824v-99.571c-23.262-63.578-34.07-139.414-32.236-217.82h-83.588c-35.228 0-63.785 28.558-63.785 63.785v189.82c0 35.228 28.558 63.786 63.785 63.786z" fill="#7acefa"/><path d="m259.523 356.464h172.563c18.499 0 33.496-14.997 33.496-33.496v-172.563c0-18.499-14.997-33.496-33.496-33.496h-172.563c-18.499 0-33.496 14.997-33.496 33.496v172.563c0 18.499 14.997 33.496 33.496 33.496z" fill="#383c43"/><path d="m465.582 307.644v15.324c0 18.499-14.997 33.496-33.496 33.496h-172.563c-18.499 0-33.496-14.997-33.496-33.496v-15.324z" fill="#c6c6c6"/><path d="m294.511 116.909h102.588v29.548c0 10.546-8.549 19.096-19.096 19.096h-64.396c-10.546 0-19.096-8.55-19.096-19.096z" fill="#c6c6c6"/><path d="m306.121 273.076-4.867-15.095c-1.749-5.424 3.911-10.267 8.999-7.701l15.552 7.843c1.747.881 3.81-.389 3.81-2.345v-90.224h32.382v90.224c0 1.957 2.062 3.226 3.809 2.345l15.552-7.843c5.088-2.566 10.748 2.277 8.999 7.701l-4.867 15.095c-.564 1.748.795 3.52 2.629 3.43l18.858-.931c5.957-.294 9.059 6.986 4.721 11.079l-22.248 20.99h-87.29l-22.248-20.99c-4.338-4.093-1.236-11.373 4.721-11.079l18.858.931c1.835.09 3.193-1.682 2.63-3.43z" fill="#e8899e"/><path d="m68.209 340.679h58.191c8.181 0 14.813-6.632 14.813-14.813v-58.191c0-8.181-6.632-14.813-14.813-14.813h-58.191c-8.181 0-14.813 6.632-14.813 14.813v58.191c0 8.181 6.632 14.813 14.813 14.813z" fill="#f7ef87"/><path d="m97.305 296.77h43.909v-29.095c0-8.181-6.632-14.813-14.813-14.813h-29.096z" fill="#8eafe2"/><path d="m53.396 296.77h43.909v-43.909h-29.096c-8.181 0-14.813 6.632-14.813 14.813z" fill="#fff"/><path d="m97.305 340.679h29.095c8.181 0 14.813-6.632 14.813-14.813v-29.096h-43.908z" fill="#4e5660"/><g fill="#fff"><path d="m132.934 227.3h-71.258c-4.142 0-7.5-3.357-7.5-7.5s3.358-7.5 7.5-7.5h71.258c4.142 0 7.5 3.357 7.5 7.5 0 4.142-3.358 7.5-7.5 7.5z"/><ellipse cx="153.087" cy="173.264" rx="20.583" ry="16.391"/><ellipse cx="41.522" cy="173.264" rx="20.583" ry="16.391"/></g><path d="m45.896 267.675v58.191c0 12.304 10.01 22.313 22.313 22.313h58.191c12.303 0 22.313-10.01 22.313-22.313v-58.191c0-12.304-10.01-22.314-22.313-22.314h-58.191c-12.303 0-22.313 10.01-22.313 22.314zm58.909-7.314h21.595c4.032 0 7.313 3.281 7.313 7.314v21.596h-28.909v-28.91zm0 43.91h28.909v21.596c0 4.032-3.281 7.313-7.313 7.313h-21.596zm-43.909-36.596c0-4.032 3.281-7.314 7.313-7.314h21.596v28.909h-28.909zm0 36.596h28.909v28.909h-21.596c-4.032 0-7.313-3.281-7.313-7.313zm-7.378-162.127c-4.142 0-7.5 3.357-7.5 7.5v7.268c0 4.143 3.358 7.5 7.5 7.5s7.5-3.357 7.5-7.5v-7.268c0-4.143-3.358-7.5-7.5-7.5zm378.568-32.735h-172.563c-22.605 0-40.996 18.391-40.996 40.996v172.563c0 22.605 18.391 40.996 40.996 40.996h172.563c22.605 0 40.996-18.391 40.996-40.996v-172.563c0-22.605-18.391-40.996-40.996-40.996zm-130.075 15h87.588v22.049c0 6.394-5.202 11.596-11.596 11.596h-64.396c-6.394 0-11.596-5.202-11.596-11.596zm77.942 155.635c2.023 2.639 5.211 4.104 8.535 3.952l15.931-.786-17.949 16.934h-81.33l-17.949-16.934 15.929.786c3.317.15 6.512-1.314 8.536-3.952 2.024-2.639 2.623-6.104 1.603-9.271l-4.073-12.631 13.242 6.678c3.162 1.593 6.852 1.439 9.869-.42 3.016-1.856 4.817-5.08 4.817-8.622v-82.725h17.382v82.725c0 3.542 1.801 6.766 4.817 8.622 3.017 1.858 6.707 2.015 9.87.419l13.242-6.678-4.073 12.633c-1.022 3.166-.423 6.631 1.601 9.27zm-146.426-129.639c0-14.334 11.662-25.996 25.996-25.996h27.487v22.049c0 14.665 11.931 26.596 26.596 26.596h8.507v74.809l-8.483-4.278c-5.026-2.535-11.039-1.809-15.317 1.852s-5.925 9.488-4.197 14.847l2.703 8.384-11.816-.583c-5.885-.283-11.181 3.025-13.491 8.445-2.31 5.421-1.033 11.536 3.253 15.58l8.517 8.035h-49.755zm224.555 172.563c0 14.334-11.662 25.996-25.996 25.996h-172.563c-14.334 0-25.996-11.662-25.996-25.996v-7.824h224.555zm0-22.824h-49.754l8.517-8.035c4.286-4.044 5.563-10.159 3.253-15.58-2.311-5.42-7.61-8.735-13.491-8.445l-11.816.583 2.704-8.384c1.728-5.358.08-11.186-4.198-14.847-4.277-3.66-10.291-4.388-15.316-1.852l-8.484 4.278v-74.809h8.507c14.665 0 26.596-11.931 26.596-26.596v-22.049h27.487c14.335 0 25.996 11.662 25.996 25.996v149.74zm-17.367-229.653h-353.211c-4.142 0-7.5 3.357-7.5 7.5s3.358 7.5 7.5 7.5h92.106v302.391h-108.325c-31.035 0-56.285-25.249-56.285-56.285v-189.82c0-24.796 15.892-46.399 39.545-53.757 3.955-1.229 6.164-5.434 4.934-9.389s-5.432-6.169-9.389-4.934c-29.961 9.319-50.09 36.678-50.09 68.079v189.82c0 33.924 23.827 62.37 55.62 69.53v18.979c0 11.802 9.602 21.403 21.404 21.403h309.349c4.142 0 7.5-3.357 7.5-7.5s-3.358-7.5-7.5-7.5h-309.349c-3.531 0-6.404-2.872-6.404-6.403v-17.241c.223.002.442.017.665.017h369.43c.223 0 .442-.015.665-.017v17.241c0 3.531-2.873 6.403-6.404 6.403h-12.876c-4.142 0-7.5 3.357-7.5 7.5s3.358 7.5 7.5 7.5h12.876c11.802 0 21.404-9.602 21.404-21.403v-18.979c31.793-7.16 55.62-35.606 55.62-69.53v-189.82c0-39.306-31.979-71.285-71.285-71.285zm56.285 261.106c0 31.036-25.25 56.285-56.285 56.285h-246.106v-302.391h246.105c31.036 0 56.285 25.249 56.285 56.285v189.821zm-399.695-161.603c6.592 0 12.86-2.854 17.198-7.832 2.722-3.122 2.396-7.86-.726-10.582-3.123-2.721-7.86-2.396-10.582.727-1.489 1.708-3.636 2.688-5.891 2.688s-4.402-.979-5.891-2.688c-2.721-3.123-7.46-3.448-10.582-.727-3.122 2.722-3.448 7.46-.726 10.582 4.339 4.978 10.608 7.832 17.2 7.832zm51.287-13.082v-7.268c0-4.143-3.358-7.5-7.5-7.5s-7.5 3.357-7.5 7.5v7.268c0 4.143 3.358 7.5 7.5 7.5s7.5-3.357 7.5-7.5z"/></svg>